# Wavefront OBJ file automatically generated by Tiled2Unity

# Vertices (Count = 288)
v -384 -32 0
v -416 -32 0
v -416 0 0
v -384 0 0
v -448 -32 0
v -448 0 0
v -480 -32 0
v -480 0 0
v -512 -32 0
v -512 0 0
v -544 -32 0
v -544 0 0
v 0 -64 0
v -32 -64 0
v -32 -32 0
v 0 -32 0
v -64 -64 0
v -64 -32 0
v -96 -64 0
v -96 -32 0
v -128 -64 0
v -128 -32 0
v -160 -64 0
v -160 -32 0
v -192 -64 0
v -192 -32 0
v -224 -64 0
v -224 -32 0
v -256 -64 0
v -256 -32 0
v -288 -64 0
v -288 -32 0
v -320 -64 0
v -320 -32 0
v -352 -64 0
v -352 -32 0
v -384 -64 0
v -416 -64 0
v -448 -64 0
v -480 -64 0
v -512 -64 0
v -544 -64 0
v 0 -96 0
v -32 -96 0
v -64 -96 0
v -96 -96 0
v -128 -96 0
v -160 -96 0
v -192 -96 0
v -224 -96 0
v -256 -96 0
v -288 -96 0
v -320 -96 0
v -352 -96 0
v -384 -96 0
v -416 -96 0
v -448 -96 0
v -480 -96 0
v -512 -96 0
v -544 -96 0
v 0 -128 0
v -32 -128 0
v -64 -128 0
v -96 -128 0
v -128 -128 0
v -160 -128 0
v -192 -128 0
v -224 -128 0
v -256 -128 0
v -288 -128 0
v -320 -128 0
v -352 -128 0
v -384 -128 0
v -416 -128 0
v -448 -128 0
v -480 -128 0
v -512 -128 0
v -544 -128 0
v 0 -160 0
v -32 -160 0
v -64 -160 0
v -96 -160 0
v -128 -160 0
v -160 -160 0
v -192 -160 0
v -224 -160 0
v -256 -160 0
v -288 -160 0
v -320 -160 0
v -352 -160 0
v -384 -160 0
v -416 -160 0
v -448 -160 0
v -480 -160 0
v -512 -160 0
v -544 -160 0
v 0 -192 0
v -32 -192 0
v -64 -192 0
v -96 -192 0
v -128 -192 0
v -160 -192 0
v -192 -192 0
v -224 -192 0
v -256 -192 0
v -288 -192 0
v -320 -192 0
v -352 -192 0
v -384 -192 0
v -416 -192 0
v -448 -192 0
v -480 -192 0
v -512 -192 0
v -544 -192 0
v 0 -224 0
v -32 -224 0
v -64 -224 0
v -96 -224 0
v -128 -224 0
v -160 -224 0
v -192 -224 0
v -224 -224 0
v -256 -224 0
v -288 -224 0
v -320 -224 0
v -352 -224 0
v -384 -224 0
v -416 -224 0
v -448 -224 0
v -480 -224 0
v -512 -224 0
v -544 -224 0
v 0 -256 0
v -32 -256 0
v -64 -256 0
v -96 -256 0
v -128 -256 0
v -160 -256 0
v -192 -256 0
v -224 -256 0
v -256 -256 0
v -288 -256 0
v -320 -256 0
v -352 -256 0
v -384 -256 0
v -416 -256 0
v -448 -256 0
v -480 -256 0
v -512 -256 0
v -544 -256 0
v 0 -288 0
v -32 -288 0
v -64 -288 0
v -96 -288 0
v -128 -288 0
v -160 -288 0
v -192 -288 0
v -224 -288 0
v -256 -288 0
v -288 -288 0
v -320 -288 0
v -352 -288 0
v -384 -288 0
v -416 -288 0
v -448 -288 0
v -480 -288 0
v -512 -288 0
v -544 -288 0
v 0 -320 0
v -32 -320 0
v -64 -320 0
v -96 -320 0
v -128 -320 0
v -160 -320 0
v -192 -320 0
v -224 -320 0
v -256 -320 0
v -288 -320 0
v -320 -320 0
v -352 -320 0
v -384 -320 0
v -416 -320 0
v -448 -320 0
v -480 -320 0
v -512 -320 0
v -544 -320 0
v 0 -352 0
v -32 -352 0
v -64 -352 0
v -96 -352 0
v -128 -352 0
v -160 -352 0
v -192 -352 0
v -224 -352 0
v -256 -352 0
v -288 -352 0
v -320 -352 0
v -352 -352 0
v -384 -352 0
v -416 -352 0
v -448 -352 0
v -480 -352 0
v -512 -352 0
v -544 -352 0
v 0 -384 0
v -32 -384 0
v -64 -384 0
v -96 -384 0
v -128 -384 0
v -160 -384 0
v -192 -384 0
v -224 -384 0
v -256 -384 0
v -288 -384 0
v -320 -384 0
v -352 -384 0
v -384 -384 0
v -416 -384 0
v -448 -384 0
v -480 -384 0
v -512 -384 0
v -544 -384 0
v 0 -416 0
v -32 -416 0
v -64 -416 0
v -96 -416 0
v -128 -416 0
v -160 -416 0
v -192 -416 0
v -224 -416 0
v -256 -416 0
v -288 -416 0
v -320 -416 0
v -352 -416 0
v -384 -416 0
v -416 -416 0
v -448 -416 0
v -480 -416 0
v -512 -416 0
v -544 -416 0
v 0 -448 0
v -32 -448 0
v -64 -448 0
v -96 -448 0
v -128 -448 0
v -160 -448 0
v -192 -448 0
v -224 -448 0
v -256 -448 0
v -288 -448 0
v -320 -448 0
v -352 -448 0
v -384 -448 0
v -416 -448 0
v -448 -448 0
v -480 -448 0
v -512 -448 0
v -544 -448 0
v 0 -480 0
v -32 -480 0
v -64 -480 0
v -96 -480 0
v -128 -480 0
v -160 -480 0
v -192 -480 0
v -224 -480 0
v -256 -480 0
v -288 -480 0
v -320 -480 0
v -352 -480 0
v -384 -480 0
v -416 -480 0
v -448 -480 0
v -480 -480 0
v -512 -480 0
v -544 -480 0
v -32 0 0
v 0 0 0
v -64 0 0
v -96 0 0
v -128 0 0
v -160 0 0
v -192 0 0
v -224 0 0
v -256 0 0
v -288 0 0
v -320 0 0
v -352 0 0

# Texture Coorindates (Count = 40)
vt 0.9376221 0.9688721
vt 0.96875 0.9688721
vt 0.96875 1
vt 0.9376221 1
vt 0.9376221 0.9063721
vt 0.96875 0.9063721
vt 0.96875 0.9375
vt 0.9376221 0.9375
vt 0.9688721 0.8438721
vt 1 0.8438721
vt 1 0.875
vt 0.9688721 0.875
vt 0.9688721 0.9376221
vt 1 0.9376221
vt 1 0.96875
vt 0.9688721 0.96875
vt 0.9376221 0.9376221
vt 0.96875 0.9376221
vt 0.96875 0.96875
vt 0.9376221 0.96875
vt 0.7813721 0.7813721
vt 0.8125 0.7813721
vt 0.8125 0.8125
vt 0.7813721 0.8125
vt 0.7813721 0.6563721
vt 0.8125 0.6563721
vt 0.8125 0.6875
vt 0.7813721 0.6875
vt 0.8126221 0.7813721
vt 0.84375 0.7813721
vt 0.84375 0.8125
vt 0.8126221 0.8125
vt 0.8126221 0.6876221
vt 0.84375 0.6876221
vt 0.84375 0.71875
vt 0.8126221 0.71875
vt 0.7501221 0.6876221
vt 0.78125 0.6876221
vt 0.78125 0.71875
vt 0.7501221 0.71875

# Normal
vn 0 0 -1

# Groups (Count = 2)
g mesh_[00]_[00]
f  1/1/1  2/2/1  3/3/1  4/4/1 
f  2/1/1  5/2/1  6/3/1  3/4/1 
f  5/1/1  7/2/1  8/3/1  6/4/1 
f  7/1/1  9/2/1  10/3/1  8/4/1 
f  9/1/1  11/2/1  12/3/1  10/4/1 
f  13/1/1  14/2/1  15/3/1  16/4/1 
f  14/1/1  17/2/1  18/3/1  15/4/1 
f  17/1/1  19/2/1  20/3/1  18/4/1 
f  19/1/1  21/2/1  22/3/1  20/4/1 
f  21/1/1  23/2/1  24/3/1  22/4/1 
f  23/1/1  25/2/1  26/3/1  24/4/1 
f  25/1/1  27/2/1  28/3/1  26/4/1 
f  27/1/1  29/2/1  30/3/1  28/4/1 
f  29/1/1  31/2/1  32/3/1  30/4/1 
f  31/1/1  33/2/1  34/3/1  32/4/1 
f  33/1/1  35/2/1  36/3/1  34/4/1 
f  35/1/1  37/2/1  1/3/1  36/4/1 
f  37/1/1  38/2/1  2/3/1  1/4/1 
f  38/1/1  39/2/1  5/3/1  2/4/1 
f  39/1/1  40/2/1  7/3/1  5/4/1 
f  40/1/1  41/2/1  9/3/1  7/4/1 
f  41/1/1  42/2/1  11/3/1  9/4/1 
f  43/1/1  44/2/1  14/3/1  13/4/1 
f  44/1/1  45/2/1  17/3/1  14/4/1 
f  45/1/1  46/2/1  19/3/1  17/4/1 
f  46/1/1  47/2/1  21/3/1  19/4/1 
f  47/1/1  48/2/1  23/3/1  21/4/1 
f  48/1/1  49/2/1  25/3/1  23/4/1 
f  49/1/1  50/2/1  27/3/1  25/4/1 
f  50/1/1  51/2/1  29/3/1  27/4/1 
f  51/1/1  52/2/1  31/3/1  29/4/1 
f  52/1/1  53/2/1  33/3/1  31/4/1 
f  53/1/1  54/2/1  35/3/1  33/4/1 
f  54/1/1  55/2/1  37/3/1  35/4/1 
f  55/1/1  56/2/1  38/3/1  37/4/1 
f  56/1/1  57/2/1  39/3/1  38/4/1 
f  57/1/1  58/2/1  40/3/1  39/4/1 
f  58/1/1  59/2/1  41/3/1  40/4/1 
f  59/1/1  60/2/1  42/3/1  41/4/1 
f  61/1/1  62/2/1  44/3/1  43/4/1 
f  62/1/1  63/2/1  45/3/1  44/4/1 
f  63/1/1  64/2/1  46/3/1  45/4/1 
f  64/5/1  65/6/1  47/7/1  46/8/1 
f  65/1/1  66/2/1  48/3/1  47/4/1 
f  66/1/1  67/2/1  49/3/1  48/4/1 
f  67/1/1  68/2/1  50/3/1  49/4/1 
f  68/9/1  69/10/1  51/11/1  50/12/1 
f  69/1/1  70/2/1  52/3/1  51/4/1 
f  70/1/1  71/2/1  53/3/1  52/4/1 
f  71/1/1  72/2/1  54/3/1  53/4/1 
f  72/1/1  73/2/1  55/3/1  54/4/1 
f  73/1/1  74/2/1  56/3/1  55/4/1 
f  74/1/1  75/2/1  57/3/1  56/4/1 
f  75/1/1  76/2/1  58/3/1  57/4/1 
f  76/1/1  77/2/1  59/3/1  58/4/1 
f  77/1/1  78/2/1  60/3/1  59/4/1 
f  79/1/1  80/2/1  62/3/1  61/4/1 
f  80/1/1  81/2/1  63/3/1  62/4/1 
f  81/1/1  82/2/1  64/3/1  63/4/1 
f  82/1/1  83/2/1  65/3/1  64/4/1 
f  83/1/1  84/2/1  66/3/1  65/4/1 
f  84/1/1  85/2/1  67/3/1  66/4/1 
f  85/1/1  86/2/1  68/3/1  67/4/1 
f  86/1/1  87/2/1  69/3/1  68/4/1 
f  87/5/1  88/6/1  70/7/1  69/8/1 
f  88/1/1  89/2/1  71/3/1  70/4/1 
f  89/1/1  90/2/1  72/3/1  71/4/1 
f  90/13/1  91/14/1  73/15/1  72/16/1 
f  91/1/1  92/2/1  74/3/1  73/4/1 
f  92/1/1  93/2/1  75/3/1  74/4/1 
f  93/13/1  94/14/1  76/15/1  75/16/1 
f  94/1/1  95/2/1  77/3/1  76/4/1 
f  95/1/1  96/2/1  78/3/1  77/4/1 
f  97/1/1  98/2/1  80/3/1  79/4/1 
f  98/9/1  99/10/1  81/11/1  80/12/1 
f  99/1/1  100/2/1  82/3/1  81/4/1 
f  100/1/1  101/2/1  83/3/1  82/4/1 
f  101/1/1  102/2/1  84/3/1  83/4/1 
f  102/1/1  103/2/1  85/3/1  84/4/1 
f  103/1/1  104/2/1  86/3/1  85/4/1 
f  104/1/1  105/2/1  87/3/1  86/4/1 
f  105/1/1  106/2/1  88/3/1  87/4/1 
f  106/1/1  107/2/1  89/3/1  88/4/1 
f  107/1/1  108/2/1  90/3/1  89/4/1 
f  108/1/1  109/2/1  91/3/1  90/4/1 
f  109/1/1  110/2/1  92/3/1  91/4/1 
f  110/1/1  111/2/1  93/3/1  92/4/1 
f  111/13/1  112/14/1  94/15/1  93/16/1 
f  112/17/1  113/18/1  95/19/1  94/20/1 
f  113/1/1  114/2/1  96/3/1  95/4/1 
f  115/1/1  116/2/1  98/3/1  97/4/1 
f  116/1/1  117/2/1  99/3/1  98/4/1 
f  117/1/1  118/2/1  100/3/1  99/4/1 
f  118/1/1  119/2/1  101/3/1  100/4/1 
f  119/1/1  120/2/1  102/3/1  101/4/1 
f  120/1/1  121/2/1  103/3/1  102/4/1 
f  121/1/1  122/2/1  104/3/1  103/4/1 
f  122/1/1  123/2/1  105/3/1  104/4/1 
f  123/1/1  124/2/1  106/3/1  105/4/1 
f  124/1/1  125/2/1  107/3/1  106/4/1 
f  125/9/1  126/10/1  108/11/1  107/12/1 
f  126/1/1  127/2/1  109/3/1  108/4/1 
f  127/1/1  128/2/1  110/3/1  109/4/1 
f  128/1/1  129/2/1  111/3/1  110/4/1 
f  129/1/1  130/2/1  112/3/1  111/4/1 
f  130/1/1  131/2/1  113/3/1  112/4/1 
f  131/1/1  132/2/1  114/3/1  113/4/1 
f  133/1/1  134/2/1  116/3/1  115/4/1 
f  134/1/1  135/2/1  117/3/1  116/4/1 
f  135/1/1  136/2/1  118/3/1  117/4/1 
f  136/1/1  137/2/1  119/3/1  118/4/1 
f  137/1/1  138/2/1  120/3/1  119/4/1 
f  138/1/1  139/2/1  121/3/1  120/4/1 
f  139/9/1  140/10/1  122/11/1  121/12/1 
f  140/1/1  141/2/1  123/3/1  122/4/1 
f  141/1/1  142/2/1  124/3/1  123/4/1 
f  142/1/1  143/2/1  125/3/1  124/4/1 
f  143/1/1  144/2/1  126/3/1  125/4/1 
f  144/1/1  145/2/1  127/3/1  126/4/1 
f  145/9/1  146/10/1  128/11/1  127/12/1 
f  146/1/1  147/2/1  129/3/1  128/4/1 
f  147/1/1  148/2/1  130/3/1  129/4/1 
f  148/1/1  149/2/1  131/3/1  130/4/1 
f  149/1/1  150/2/1  132/3/1  131/4/1 
f  151/1/1  152/2/1  134/3/1  133/4/1 
f  152/1/1  153/2/1  135/3/1  134/4/1 
f  153/1/1  154/2/1  136/3/1  135/4/1 
f  154/1/1  155/2/1  137/3/1  136/4/1 
f  155/1/1  156/2/1  138/3/1  137/4/1 
f  156/1/1  157/2/1  139/3/1  138/4/1 
f  157/1/1  158/2/1  140/3/1  139/4/1 
f  158/1/1  159/2/1  141/3/1  140/4/1 
f  159/1/1  160/2/1  142/3/1  141/4/1 
f  160/1/1  161/2/1  143/3/1  142/4/1 
f  161/1/1  162/2/1  144/3/1  143/4/1 
f  162/1/1  163/2/1  145/3/1  144/4/1 
f  163/1/1  164/2/1  146/3/1  145/4/1 
f  164/1/1  165/2/1  147/3/1  146/4/1 
f  165/1/1  166/2/1  148/3/1  147/4/1 
f  166/1/1  167/2/1  149/3/1  148/4/1 
f  167/1/1  168/2/1  150/3/1  149/4/1 
f  169/1/1  170/2/1  152/3/1  151/4/1 
f  170/1/1  171/2/1  153/3/1  152/4/1 
f  171/1/1  172/2/1  154/3/1  153/4/1 
f  172/1/1  173/2/1  155/3/1  154/4/1 
f  173/1/1  174/2/1  156/3/1  155/4/1 
f  174/1/1  175/2/1  157/3/1  156/4/1 
f  175/1/1  176/2/1  158/3/1  157/4/1 
f  176/1/1  177/2/1  159/3/1  158/4/1 
f  177/1/1  178/2/1  160/3/1  159/4/1 
f  178/1/1  179/2/1  161/3/1  160/4/1 
f  179/1/1  180/2/1  162/3/1  161/4/1 
f  180/1/1  181/2/1  163/3/1  162/4/1 
f  181/1/1  182/2/1  164/3/1  163/4/1 
f  182/1/1  183/2/1  165/3/1  164/4/1 
f  183/1/1  184/2/1  166/3/1  165/4/1 
f  184/1/1  185/2/1  167/3/1  166/4/1 
f  185/1/1  186/2/1  168/3/1  167/4/1 
f  187/1/1  188/2/1  170/3/1  169/4/1 
f  188/1/1  189/2/1  171/3/1  170/4/1 
f  189/1/1  190/2/1  172/3/1  171/4/1 
f  190/1/1  191/2/1  173/3/1  172/4/1 
f  191/1/1  192/2/1  174/3/1  173/4/1 
f  192/1/1  193/2/1  175/3/1  174/4/1 
f  193/1/1  194/2/1  176/3/1  175/4/1 
f  194/1/1  195/2/1  177/3/1  176/4/1 
f  195/1/1  196/2/1  178/3/1  177/4/1 
f  196/1/1  197/2/1  179/3/1  178/4/1 
f  197/1/1  198/2/1  180/3/1  179/4/1 
f  198/1/1  199/2/1  181/3/1  180/4/1 
f  199/1/1  200/2/1  182/3/1  181/4/1 
f  200/1/1  201/2/1  183/3/1  182/4/1 
f  201/1/1  202/2/1  184/3/1  183/4/1 
f  202/1/1  203/2/1  185/3/1  184/4/1 
f  203/1/1  204/2/1  186/3/1  185/4/1 
f  205/1/1  206/2/1  188/3/1  187/4/1 
f  206/1/1  207/2/1  189/3/1  188/4/1 
f  207/1/1  208/2/1  190/3/1  189/4/1 
f  208/1/1  209/2/1  191/3/1  190/4/1 
f  209/1/1  210/2/1  192/3/1  191/4/1 
f  210/1/1  211/2/1  193/3/1  192/4/1 
f  211/1/1  212/2/1  194/3/1  193/4/1 
f  212/1/1  213/2/1  195/3/1  194/4/1 
f  213/1/1  214/2/1  196/3/1  195/4/1 
f  214/1/1  215/2/1  197/3/1  196/4/1 
f  215/1/1  216/2/1  198/3/1  197/4/1 
f  216/1/1  217/2/1  199/3/1  198/4/1 
f  217/1/1  218/2/1  200/3/1  199/4/1 
f  218/1/1  219/2/1  201/3/1  200/4/1 
f  219/1/1  220/2/1  202/3/1  201/4/1 
f  220/1/1  221/2/1  203/3/1  202/4/1 
f  221/1/1  222/2/1  204/3/1  203/4/1 
f  223/1/1  224/2/1  206/3/1  205/4/1 
f  224/1/1  225/2/1  207/3/1  206/4/1 
f  225/1/1  226/2/1  208/3/1  207/4/1 
f  226/1/1  227/2/1  209/3/1  208/4/1 
f  227/1/1  228/2/1  210/3/1  209/4/1 
f  228/1/1  229/2/1  211/3/1  210/4/1 
f  229/1/1  230/2/1  212/3/1  211/4/1 
f  230/1/1  231/2/1  213/3/1  212/4/1 
f  231/1/1  232/2/1  214/3/1  213/4/1 
f  232/1/1  233/2/1  215/3/1  214/4/1 
f  233/1/1  234/2/1  216/3/1  215/4/1 
f  234/1/1  235/2/1  217/3/1  216/4/1 
f  235/1/1  236/2/1  218/3/1  217/4/1 
f  236/1/1  237/2/1  219/3/1  218/4/1 
f  237/1/1  238/2/1  220/3/1  219/4/1 
f  238/1/1  239/2/1  221/3/1  220/4/1 
f  239/1/1  240/2/1  222/3/1  221/4/1 
f  241/1/1  242/2/1  224/3/1  223/4/1 
f  242/1/1  243/2/1  225/3/1  224/4/1 
f  243/1/1  244/2/1  226/3/1  225/4/1 
f  244/1/1  245/2/1  227/3/1  226/4/1 
f  245/17/1  246/18/1  228/19/1  227/20/1 
f  246/1/1  247/2/1  229/3/1  228/4/1 
f  247/1/1  248/2/1  230/3/1  229/4/1 
f  248/1/1  249/2/1  231/3/1  230/4/1 
f  249/1/1  250/2/1  232/3/1  231/4/1 
f  250/1/1  251/2/1  233/3/1  232/4/1 
f  251/1/1  252/2/1  234/3/1  233/4/1 
f  252/1/1  253/2/1  235/3/1  234/4/1 
f  253/1/1  254/2/1  236/3/1  235/4/1 
f  254/1/1  255/2/1  237/3/1  236/4/1 
f  255/1/1  256/2/1  238/3/1  237/4/1 
f  256/1/1  257/2/1  239/3/1  238/4/1 
f  257/1/1  258/2/1  240/3/1  239/4/1 
f  259/1/1  260/2/1  242/3/1  241/4/1 
f  260/1/1  261/2/1  243/3/1  242/4/1 
f  261/1/1  262/2/1  244/3/1  243/4/1 
f  262/1/1  263/2/1  245/3/1  244/4/1 
f  263/1/1  264/2/1  246/3/1  245/4/1 
f  264/1/1  265/2/1  247/3/1  246/4/1 
f  265/1/1  266/2/1  248/3/1  247/4/1 
f  266/1/1  267/2/1  249/3/1  248/4/1 
f  267/1/1  268/2/1  250/3/1  249/4/1 
f  268/1/1  269/2/1  251/3/1  250/4/1 
f  269/1/1  270/2/1  252/3/1  251/4/1 
f  270/1/1  271/2/1  253/3/1  252/4/1 
f  271/1/1  272/2/1  254/3/1  253/4/1 
f  272/1/1  273/2/1  255/3/1  254/4/1 
f  273/1/1  274/2/1  256/3/1  255/4/1 
f  274/1/1  275/2/1  257/3/1  256/4/1 
f  275/1/1  276/2/1  258/3/1  257/4/1 
g mesh_[01]_[00]
f  16/21/1  15/22/1  277/23/1  278/24/1 
f  15/25/1  18/26/1  279/27/1  277/28/1 
f  18/25/1  20/26/1  280/27/1  279/28/1 
f  20/25/1  22/26/1  281/27/1  280/28/1 
f  22/25/1  24/26/1  282/27/1  281/28/1 
f  24/25/1  26/26/1  283/27/1  282/28/1 
f  26/25/1  28/26/1  284/27/1  283/28/1 
f  28/25/1  30/26/1  285/27/1  284/28/1 
f  30/25/1  32/26/1  286/27/1  285/28/1 
f  32/25/1  34/26/1  287/27/1  286/28/1 
f  34/25/1  36/26/1  288/27/1  287/28/1 
f  36/25/1  1/26/1  4/27/1  288/28/1 
f  1/25/1  2/26/1  3/27/1  4/28/1 
f  2/25/1  5/26/1  6/27/1  3/28/1 
f  5/25/1  7/26/1  8/27/1  6/28/1 
f  7/25/1  9/26/1  10/27/1  8/28/1 
f  9/29/1  11/30/1  12/31/1  10/32/1 
f  13/33/1  14/34/1  15/35/1  16/36/1 
f  41/37/1  42/38/1  11/39/1  9/40/1 
f  43/33/1  44/34/1  14/35/1  13/36/1 
f  59/37/1  60/38/1  42/39/1  41/40/1 
f  61/33/1  62/34/1  44/35/1  43/36/1 
f  77/37/1  78/38/1  60/39/1  59/40/1 
f  79/33/1  80/34/1  62/35/1  61/36/1 
f  95/37/1  96/38/1  78/39/1  77/40/1 
f  97/33/1  98/34/1  80/35/1  79/36/1 
f  113/37/1  114/38/1  96/39/1  95/40/1 
f  115/33/1  116/34/1  98/35/1  97/36/1 
f  131/37/1  132/38/1  114/39/1  113/40/1 
f  133/33/1  134/34/1  116/35/1  115/36/1 
f  149/37/1  150/38/1  132/39/1  131/40/1 
f  151/33/1  152/34/1  134/35/1  133/36/1 
f  167/37/1  168/38/1  150/39/1  149/40/1 
f  169/33/1  170/34/1  152/35/1  151/36/1 
f  185/37/1  186/38/1  168/39/1  167/40/1 
f  187/33/1  188/34/1  170/35/1  169/36/1 
f  203/37/1  204/38/1  186/39/1  185/40/1 
f  205/33/1  206/34/1  188/35/1  187/36/1 
f  221/37/1  222/38/1  204/39/1  203/40/1 
f  223/33/1  224/34/1  206/35/1  205/36/1 
f  239/37/1  240/38/1  222/39/1  221/40/1 
f  241/33/1  242/34/1  224/35/1  223/36/1 
f  257/37/1  258/38/1  240/39/1  239/40/1 
f  259/25/1  260/26/1  242/27/1  241/28/1 
f  260/25/1  261/26/1  243/27/1  242/28/1 
f  261/25/1  262/26/1  244/27/1  243/28/1 
f  262/25/1  263/26/1  245/27/1  244/28/1 
f  263/25/1  264/26/1  246/27/1  245/28/1 
f  264/25/1  265/26/1  247/27/1  246/28/1 
f  265/25/1  266/26/1  248/27/1  247/28/1 
f  266/25/1  267/26/1  249/27/1  248/28/1 
f  267/25/1  268/26/1  250/27/1  249/28/1 
f  268/25/1  269/26/1  251/27/1  250/28/1 
f  269/25/1  270/26/1  252/27/1  251/28/1 
f  270/25/1  271/26/1  253/27/1  252/28/1 
f  271/25/1  272/26/1  254/27/1  253/28/1 
f  272/25/1  273/26/1  255/27/1  254/28/1 
f  273/25/1  274/26/1  256/27/1  255/28/1 
f  274/25/1  275/26/1  257/27/1  256/28/1 
f  275/25/1  276/26/1  258/27/1  257/28/1 
